<svg width="93" height="92" viewBox="0 0 93 92" fill="none" xmlns="http://www.w3.org/2000/svg">
<path d="M73.9833 19.1667V18.5167H73.3333H19.6667H19.0167V19.1667V72.8333V73.4833H19.6667H73.3333H73.9833V72.8333V19.1667ZM19.6667 12.15H73.3333C77.191 12.15 80.35 15.309 80.35 19.1667V72.8333C80.35 76.691 77.191 79.85 73.3333 79.85H19.6667C15.809 79.85 12.65 76.691 12.65 72.8333V19.1667C12.65 15.309 15.809 12.15 19.6667 12.15Z" fill="#4FA3A5" stroke="#F0F5F8" stroke-width="1.3"/>
<path d="M53.5167 64.5166H27.9833V58.15H53.5167V64.5166ZM65.0167 49.1833H27.9833V42.8166H65.0167V49.1833ZM65.0167 33.85H27.9833V27.4833H65.0167V33.85Z" fill="#4FA3A5" stroke="#F0F5F8" stroke-width="1.3"/>
</svg>
