<svg width="93" height="92" viewBox="0 0 93 92" fill="none" xmlns="http://www.w3.org/2000/svg">
<path d="M52.0928 64.7412L52.0813 64.745C52.0104 64.7814 51.9384 64.8156 51.8655 64.8475C51.8608 64.8361 51.8563 64.8243 51.8522 64.812C51.8224 64.7227 51.8185 64.6271 51.8405 64.5362C51.8477 64.5063 51.8572 64.4791 51.8679 64.4546L52.0002 64.587L52.0313 64.6182L52.0546 64.6647L52.0928 64.7412ZM52.0928 64.7412L52.1082 64.7335H52.1197M52.0928 64.7412L52.0621 64.6491L52.0697 64.6567L52.0928 64.6798L52.1082 64.7105L52.1197 64.7335M52.1197 64.7335L52.1273 64.7297H52.1338L52.1343 64.7213L52.1273 64.7143L52.1197 64.7066V64.7143V64.7335ZM52.7103 80H52.71H15.8333C11.8813 80 8.66666 76.7853 8.66666 72.8333V49.8333C8.66666 45.8813 11.8813 42.6667 15.8333 42.6667L35.5597 42.6667L35.5613 42.6667C38.3171 42.6575 41.0204 43.4202 43.365 44.8684C45.7097 46.3166 47.6019 48.3924 48.8275 50.8607L48.828 50.8618L51.1932 55.596L51.4697 56.1493L51.9528 55.763L64.1589 46.0019C64.1595 46.0014 64.16 46.001 64.1606 46.0006C65.6021 44.8662 67.3009 44.1044 69.1068 43.7826C70.9127 43.4608 72.7701 43.589 74.5148 44.1558C74.5154 44.1559 74.516 44.1561 74.5166 44.1563L82.0568 46.6698C82.5753 46.8429 83.0433 47.1408 83.4195 47.5374C83.7958 47.934 84.0687 48.417 84.2142 48.944C84.3598 49.4709 84.3735 50.0255 84.2542 50.559C84.1349 51.0924 83.8863 51.5884 83.5302 52.0031L83.5299 52.0034L63.9722 74.8194L63.972 74.8197C62.5804 76.4453 60.8531 77.7501 58.909 78.6444C56.9649 79.5387 54.8502 80.0011 52.7103 80ZM15.8333 49.3333H15.3333V49.8333V72.8333V73.3333H15.8333H52.71H52.7106C53.8842 73.3318 55.044 73.0807 56.1131 72.5968C57.1823 72.1129 58.1363 71.4072 58.9119 70.5265L58.9119 70.5265L58.9163 70.5213L74.7595 52.0332L75.243 51.4689L74.5382 51.2336L72.4032 50.5206C72.4032 50.5206 72.4031 50.5206 72.403 50.5206C71.0259 50.0601 69.4658 50.342 68.3304 51.2434L68.329 51.2446L52.436 63.9597L52.4359 63.9597L52.4298 63.9647C52.3346 64.0434 52.2347 64.1161 52.1305 64.1825L52.1174 64.1891L52.0116 64.1538L51.9434 64.222H50.5068L51.0559 64.5881C50.8357 64.637 50.6104 64.6634 50.3834 64.6667H27.8333V58H44.131H44.9396L44.5783 57.2766L42.8648 53.8458L42.8647 53.8456C41.4727 51.0616 38.6736 49.3333 35.5597 49.3333H15.8333ZM52.1465 64.7258C52.1493 64.7268 52.1518 64.7275 52.1539 64.7281L52.1427 64.7297L52.1465 64.7258ZM52.1695 64.6338V64.607L52.1701 64.6549L52.1695 64.6531L52.1695 64.653V64.653V64.6338ZM52.1427 64.5591L52.1443 64.5615L52.1427 64.5725V64.5591ZM53.8851 10.7824L54.1667 10.9742L54.4483 10.7823C58.0801 8.30658 61.2003 8.17399 61.7713 8.16666H61.8333L61.841 8.16666L61.8422 8.16666C63.2862 8.16303 64.7166 8.44594 66.0504 8.99899C67.3843 9.55204 68.5952 10.3643 69.613 11.3886L69.6138 11.3894C71.6864 13.4656 72.8333 16.2252 72.8333 19.1667C72.8333 22.1084 71.69 24.8676 69.6106 26.9433L69.6105 26.9432L69.6016 26.9524L56.5852 40.6281C56.585 40.6284 56.5847 40.6287 56.5844 40.629C56.2716 40.9543 55.8965 41.2133 55.4813 41.3903C55.0658 41.5675 54.6188 41.6589 54.1671 41.6593C53.7154 41.6596 53.2683 41.5687 52.8525 41.3921C52.4372 41.2156 52.0617 40.9572 51.7484 40.6323C51.7482 40.632 51.7479 40.6317 51.7476 40.6314L38.6626 26.8872L38.6627 26.8871L38.6544 26.8788C36.6485 24.8692 35.5 22.1103 35.5 19.1667C35.5 16.2253 36.6469 13.4657 38.7234 11.3856L38.3695 11.0323L38.7234 11.3856C40.7915 9.31378 43.5545 8.16666 46.4923 8.16666H46.4993L46.606 8.17022L46.606 8.17026L46.6123 8.17039C47.2926 8.18442 50.3435 8.36917 53.8851 10.7824ZM54.5288 33.1197L64.8325 22.2949C65.712 21.4133 66.1667 20.3275 66.1667 19.1667C66.1667 18.0108 65.7155 16.9218 64.8978 16.1037C64.4996 15.7024 64.026 15.3839 63.5041 15.1665C62.982 14.949 62.4219 14.8371 61.8562 14.8372L61.8366 14.8372L61.817 14.8387C61.4503 14.8677 59.6341 15.0967 57.5107 16.8025C57.1844 17.0644 56.8572 17.3599 56.5254 17.6878L56.5233 17.6899L54.1667 20.0466L51.8101 17.6899L51.8079 17.6878C51.4761 17.3599 51.1489 17.0644 50.8226 16.8025L50.8224 16.8024C48.5549 14.9844 46.616 14.8408 46.4395 14.8337L46.4265 14.8332L46.4135 14.8334C45.2934 14.8468 44.2241 15.3024 43.4385 16.1007C42.6178 16.9223 42.1667 18.0108 42.1667 19.1667C42.1667 20.3208 42.6164 21.4082 43.4318 22.2259L53.8045 33.1198L54.1667 33.5001L54.5288 33.1197Z" fill="#F0F5F8" stroke="#4FA3A5"/>
</svg>
