<svg width="93" height="92" viewBox="0 0 93 92" fill="none" xmlns="http://www.w3.org/2000/svg">
<path fill-rule="evenodd" clip-rule="evenodd" d="M69.5 30.6666C69.5 29.1416 70.1058 27.6791 71.1841 26.6008C72.2625 25.5224 73.725 24.9166 75.25 24.9166C76.775 24.9166 78.2375 25.5224 79.3159 26.6008C80.3942 27.6791 81 29.1416 81 30.6666V69.5807L75.25 78.2057L69.5 69.5807V30.6666ZM75.25 28.75C74.7417 28.75 74.2542 28.9519 73.8947 29.3113C73.5353 29.6708 73.3333 30.1583 73.3333 30.6666V68.4192L75.25 71.2942L77.1667 68.4192V30.6666C77.1667 30.1583 76.9647 29.6708 76.6053 29.3113C76.2458 28.9519 75.7583 28.75 75.25 28.75Z" fill="#4FA3A5"/>
<path fill-rule="evenodd" clip-rule="evenodd" d="M79.0833 38.3333H71.4167V34.5H79.0833V38.3333ZM19.6667 15.3333C18.65 15.3333 17.675 15.7372 16.9561 16.4561C16.2372 17.175 15.8333 18.15 15.8333 19.1667V72.8333C15.8333 73.85 16.2372 74.825 16.9561 75.5439C17.675 76.2628 18.65 76.6667 19.6667 76.6667H58C59.0167 76.6667 59.9917 76.2628 60.7106 75.5439C61.4295 74.825 61.8333 73.85 61.8333 72.8333V19.1667C61.8333 18.15 61.4295 17.175 60.7106 16.4561C59.9917 15.7372 59.0167 15.3333 58 15.3333H19.6667ZM12 19.1667C12 17.1333 12.8077 15.1833 14.2455 13.7455C15.6833 12.3077 17.6333 11.5 19.6667 11.5H58C60.0333 11.5 61.9834 12.3077 63.4212 13.7455C64.8589 15.1833 65.6667 17.1333 65.6667 19.1667V72.8333C65.6667 74.8667 64.8589 76.8167 63.4212 78.2545C61.9834 79.6923 60.0333 80.5 58 80.5H19.6667C17.6333 80.5 15.6833 79.6923 14.2455 78.2545C12.8077 76.8167 12 74.8667 12 72.8333V19.1667Z" fill="#4FA3A5"/>
<path fill-rule="evenodd" clip-rule="evenodd" d="M38.8333 28.75C38.8333 28.2417 39.0352 27.7542 39.3947 27.3948C39.7541 27.0353 40.2416 26.8334 40.75 26.8334H56.0833C56.5916 26.8334 57.0791 27.0353 57.4386 27.3948C57.798 27.7542 58 28.2417 58 28.75C58 29.2584 57.798 29.7459 57.4386 30.1053C57.0791 30.4648 56.5916 30.6667 56.0833 30.6667H40.75C40.2416 30.6667 39.7541 30.4648 39.3947 30.1053C39.0352 29.7459 38.8333 29.2584 38.8333 28.75ZM38.8333 36.4167C38.8333 35.9084 39.0352 35.4209 39.3947 35.0614C39.7541 34.702 40.2416 34.5 40.75 34.5H56.0833C56.5916 34.5 57.0791 34.702 57.4386 35.0614C57.798 35.4209 58 35.9084 58 36.4167C58 36.925 57.798 37.4126 57.4386 37.772C57.0791 38.1314 56.5916 38.3334 56.0833 38.3334H40.75C40.2416 38.3334 39.7541 38.1314 39.3947 37.772C39.0352 37.4126 38.8333 36.925 38.8333 36.4167ZM38.8333 53.6667C38.8333 53.1584 39.0352 52.6709 39.3947 52.3114C39.7541 51.952 40.2416 51.75 40.75 51.75H56.0833C56.5916 51.75 57.0791 51.952 57.4386 52.3114C57.798 52.6709 58 53.1584 58 53.6667C58 54.175 57.798 54.6626 57.4386 55.022C57.0791 55.3814 56.5916 55.5834 56.0833 55.5834H40.75C40.2416 55.5834 39.7541 55.3814 39.3947 55.022C39.0352 54.6626 38.8333 54.175 38.8333 53.6667ZM38.8333 61.3334C38.8333 60.825 39.0352 60.3375 39.3947 59.9781C39.7541 59.6186 40.2416 59.4167 40.75 59.4167H56.0833C56.5916 59.4167 57.0791 59.6186 57.4386 59.9781C57.798 60.3375 58 60.825 58 61.3334C58 61.8417 57.798 62.3292 57.4386 62.6887C57.0791 63.0481 56.5916 63.25 56.0833 63.25H40.75C40.2416 63.25 39.7541 63.0481 39.3947 62.6887C39.0352 62.3292 38.8333 61.8417 38.8333 61.3334ZM23.5 53.6667V59.4167H29.25V53.6667H23.5ZM21.5833 49.8334H31.1666C31.675 49.8334 32.1625 50.0353 32.5219 50.3948C32.8814 50.7542 33.0833 51.2417 33.0833 51.75V61.3334C33.0833 61.8417 32.8814 62.3292 32.5219 62.6887C32.1625 63.0481 31.675 63.25 31.1666 63.25H21.5833C21.075 63.25 20.5874 63.0481 20.228 62.6887C19.8686 62.3292 19.6666 61.8417 19.6666 61.3334V51.75C19.6666 51.2417 19.8686 50.7542 20.228 50.3948C20.5874 50.0353 21.075 49.8334 21.5833 49.8334ZM34.4384 27.395C34.7977 27.7544 34.9995 28.2418 34.9995 28.75C34.9995 29.2583 34.7977 29.7457 34.4384 30.1051L25.4166 39.1269L20.2282 33.9385C20.0451 33.7617 19.8991 33.5502 19.7987 33.3163C19.6982 33.0825 19.6454 32.831 19.6431 32.5765C19.6409 32.322 19.6894 32.0696 19.7858 31.834C19.8822 31.5985 20.0245 31.3845 20.2044 31.2045C20.3844 31.0246 20.5984 30.8823 20.834 30.7859C21.0695 30.6895 21.3219 30.641 21.5764 30.6432C21.8309 30.6454 22.0824 30.6983 22.3162 30.7988C22.5501 30.8992 22.7616 31.0452 22.9384 31.2283L25.4166 33.7065L31.7282 27.395C32.0876 27.0356 32.5751 26.8338 33.0833 26.8338C33.5915 26.8338 34.0789 27.0356 34.4384 27.395Z" fill="#4FA3A5"/>
</svg>
