<svg width="64" height="65" viewBox="0 0 64 65" fill="none" xmlns="http://www.w3.org/2000/svg">
<path d="M55 7.05835H9C7.89375 7.05835 7 7.9521 7 9.05835V55.0583C7 56.1646 7.89375 57.0583 9 57.0583H55C56.1063 57.0583 57 56.1646 57 55.0583V9.05835C57 7.9521 56.1063 7.05835 55 7.05835ZM49.225 21.6521H45.2313C42.1 21.6521 41.4938 23.1396 41.4938 25.3271V30.1458H48.9688L47.9938 37.6896H41.4938V57.0583H33.7V37.6959H27.1812V30.1458H33.7V24.5833C33.7 18.1271 37.6438 14.6083 43.4062 14.6083C46.1688 14.6083 48.5375 14.8146 49.2313 14.9083V21.6521H49.225Z" fill="#F0F5F8"/>
</svg>
