<svg width="64" height="65" viewBox="0 0 64 65" fill="none" xmlns="http://www.w3.org/2000/svg">
<path d="M32 23.7271C27.4125 23.7271 23.6687 27.4708 23.6687 32.0583C23.6687 36.6458 27.4125 40.3896 32 40.3896C36.5875 40.3896 40.3312 36.6458 40.3312 32.0583C40.3312 27.4708 36.5875 23.7271 32 23.7271ZM56.9875 32.0583C56.9875 28.6083 57.0187 25.1896 56.825 21.7458C56.6312 17.7458 55.7187 14.1958 52.7937 11.2708C49.8625 8.33955 46.3187 7.4333 42.3187 7.23955C38.8687 7.0458 35.45 7.07705 32.0062 7.07705C28.5562 7.07705 25.1375 7.0458 21.6937 7.23955C17.6937 7.4333 14.1437 8.3458 11.2187 11.2708C8.28749 14.2021 7.38124 17.7458 7.18749 21.7458C6.99374 25.1958 7.02499 28.6146 7.02499 32.0583C7.02499 35.5021 6.99374 38.9271 7.18749 42.3708C7.38124 46.3708 8.29374 49.9208 11.2187 52.8458C14.15 55.7771 17.6937 56.6833 21.6937 56.8771C25.1437 57.0708 28.5625 57.0396 32.0062 57.0396C35.4562 57.0396 38.875 57.0708 42.3187 56.8771C46.3187 56.6833 49.8687 55.7708 52.7937 52.8458C55.725 49.9146 56.6312 46.3708 56.825 42.3708C57.025 38.9271 56.9875 35.5083 56.9875 32.0583V32.0583ZM32 44.8771C24.9062 44.8771 19.1812 39.1521 19.1812 32.0583C19.1812 24.9646 24.9062 19.2396 32 19.2396C39.0937 19.2396 44.8187 24.9646 44.8187 32.0583C44.8187 39.1521 39.0937 44.8771 32 44.8771ZM45.3437 21.7083C43.6875 21.7083 42.35 20.3708 42.35 18.7146C42.35 17.0583 43.6875 15.7208 45.3437 15.7208C47 15.7208 48.3375 17.0583 48.3375 18.7146C48.338 19.1078 48.2609 19.4974 48.1106 19.8608C47.9603 20.2242 47.7398 20.5545 47.4617 20.8326C47.1836 21.1106 46.8534 21.3311 46.49 21.4814C46.1265 21.6317 45.737 21.7088 45.3437 21.7083V21.7083Z" fill="#F0F5F8"/>
</svg>
