<svg width="64" height="65" viewBox="0 0 64 65" fill="none" xmlns="http://www.w3.org/2000/svg">
<path fill-rule="evenodd" clip-rule="evenodd" d="M6 10.3444C6 9.19217 6.45771 8.08717 7.27244 7.27244C8.08716 6.45771 9.19217 6.00001 10.3444 6.00001H53.6509C54.2219 5.99907 54.7875 6.11077 55.3152 6.32871C55.843 6.54665 56.3226 6.86654 56.7266 7.27007C57.1306 7.67361 57.451 8.15286 57.6695 8.68039C57.888 9.20792 58.0003 9.77337 58 10.3444V53.6509C58.0006 54.222 57.8886 54.7876 57.6704 55.3154C57.4522 55.8432 57.1321 56.3228 56.7284 56.7267C56.3247 57.1307 55.8453 57.4511 55.3176 57.6695C54.7899 57.888 54.2244 58.0003 53.6533 58H10.3444C9.77366 58 9.20854 57.8876 8.6813 57.6691C8.15407 57.4506 7.67504 57.1304 7.2716 56.7267C6.86816 56.3231 6.5482 55.8439 6.33002 55.3165C6.11183 54.7892 5.99969 54.224 6 53.6533V10.3444ZM26.5825 25.8262H33.6238V29.3622C34.6402 27.3295 37.2402 25.5 41.1473 25.5C48.6376 25.5 50.4127 29.5489 50.4127 36.9778V50.7389H42.8325V38.6702C42.8325 34.4393 41.8162 32.052 39.2351 32.052C35.6542 32.052 34.1651 34.626 34.1651 38.6702V50.7389H26.5825V25.8262ZM13.5825 50.4151H21.1651V25.5H13.5825V50.4127V50.4151ZM22.25 17.3738C22.2643 18.023 22.1488 18.6686 21.9102 19.2726C21.6716 19.8765 21.3148 20.4268 20.8607 20.891C20.4066 21.3552 19.8644 21.724 19.2658 21.9758C18.6672 22.2276 18.0244 22.3574 17.375 22.3574C16.7256 22.3574 16.0828 22.2276 15.4842 21.9758C14.8856 21.724 14.3434 21.3552 13.8893 20.891C13.4352 20.4268 13.0784 19.8765 12.8398 19.2726C12.6012 18.6686 12.4857 18.023 12.5 17.3738C12.5281 16.0995 13.054 14.8868 13.9652 13.9954C14.8764 13.1041 16.1003 12.605 17.375 12.605C18.6497 12.605 19.8736 13.1041 20.7848 13.9954C21.696 14.8868 22.2219 16.0995 22.25 17.3738V17.3738Z" fill="#F0F5F8"/>
</svg>
