<svg width="117" height="80" viewBox="0 0 117 80" fill="none" xmlns="http://www.w3.org/2000/svg">
<rect width="117" height="91" transform="translate(0 -6)" fill="#4FA3A5"/>
<path d="M33.8 31.0171H40.8571V16.0114C40.8571 12.4457 38.0343 9.54857 34.5429 9.54857H2.74857V59.32C2.74857 61.92 4.82857 64.0743 7.42857 64.0743H12.1086C12.2571 64.0743 12.4057 64.0743 12.5543 64.0743H34.5429C38.0343 64.0743 40.8571 61.1771 40.8571 57.5371V46.0971H33.0571C29.5657 46.0971 27.4857 48.3257 27.4857 50.8514V51.8914C27.4857 52.2629 27.4857 52.1886 27.4857 52.56C27.4857 55.3829 29.8629 56.0514 29.8629 58.1314C29.8629 60.1371 27.1886 61.6971 22.2857 61.6229C16.4914 61.4743 16.64 58.7257 16.64 46.9143V38.9657C16.64 38.5943 16.8629 36.7371 18.72 36.7371L26.7429 36.8114C27.3371 36.8114 27.56 36.3657 27.56 35.9943V34.2857H16.64V21.2114C16.7886 13.9314 17.68 12 23.5486 12C28.4514 12 30.0114 13.4857 30.0114 16.0857C30.0114 20.7657 27.4857 19.2057 27.4857 23.1429C27.4857 23.5886 27.4857 23.6629 27.4857 24.0343V25.1486C27.4857 28.7143 30.3086 31.0171 33.8 31.0171Z" fill="#F0F5F8"/>
<path d="M61.0183 27.0543C60.008 26.9354 60.0972 26.1331 60.0972 26.1331V17.3377C60.0972 13.8611 55.9074 13.1777 53.56 13.1777C46.7554 13.1777 46.9634 17.3377 46.9634 17.3377C46.8446 19.1503 48.5383 19.7149 49.8754 19.2097C51.2423 18.7046 51.5097 17.1297 50.5589 16.1491C50.0537 15.644 49.8457 15.436 50.1429 14.9309C50.5886 14.2177 51.7772 13.6234 53.56 13.772C55.1052 13.8611 55.848 14.6931 55.848 16.3571C55.848 16.7137 55.848 17.0406 55.848 17.3377V17.3674V17.6349C55.7886 18.9126 55.2834 19.6257 52.1634 20.3389C47.8549 21.3491 46.9634 23.5183 46.9634 24.9743V26.2223C46.9337 27.3217 47.528 27.5297 49.0137 27.5297H52.4606C53.56 27.5297 54.7486 27.2623 55.848 25.9846V26.3411C55.848 26.9949 56.7394 27.5297 57.8686 27.5297H61.3452V27.3217C61.3452 27.2029 61.2263 27.084 61.0183 27.0543ZM55.848 24.8554C55.5806 25.836 54.0949 26.6977 52.4903 26.044C50.9154 25.42 51.1829 22.6269 53.352 21.3491C55.432 20.1309 55.848 19.5366 55.848 19.5366V24.8554ZM68.2983 19.9526H67.704C67.2583 19.9526 65.624 20.0714 65.624 19.0611V15.7926C65.624 14.5149 66.456 13.8314 67.6743 13.772C68.8926 13.7126 70.2 14.1583 70.5566 14.9903C70.7646 15.4954 70.616 15.7034 70.1703 16.2383C69.3086 17.2486 69.5463 18.8829 70.7943 19.388C72.0126 19.8931 73.4686 19.3583 73.4686 17.4566C73.4686 15.5846 72.3692 13.1183 67.8229 13.1183C67.1692 13.1183 64.6732 12.9103 62.9497 14.604C62.8012 14.7823 62.6526 14.9606 62.504 15.1686C61.9692 15.9114 61.9097 16.3274 61.9097 17.932C61.9097 20.6954 66.2183 20.6954 66.9314 20.6954C67.0206 20.6657 67.08 20.6657 67.1692 20.6657H67.6446C68.0606 20.6657 69.7246 20.636 69.7246 21.6166V25.4497C69.7246 26.876 69.1006 27.292 67.7634 27.292C66.3372 27.292 65.624 26.3114 65.624 24.7366V21.6463H63.1874C62.4743 21.6463 61.88 21.884 61.9097 22.8943V24.588C61.9097 24.588 61.7612 27.916 67.496 27.916C73.8252 27.916 73.4389 24.9149 73.4389 22.716C73.4389 19.7149 68.2983 19.9526 68.2983 19.9526ZM87.5722 27.5V15.4657C87.5722 14.4257 86.7105 13.564 85.6705 13.564H83.3231V22.1811C83.2933 22.8349 83.2933 23.4291 83.1745 23.9046C83.0556 24.588 82.5505 25.4794 81.8968 25.8063C81.2728 26.1331 80.4408 26.0737 79.9356 25.5983C79.7276 25.3903 79.5791 25.1229 79.4899 24.8257C79.2225 24.1423 79.1631 22.4486 79.1631 21.7354V15.4657C79.1631 14.4257 78.3311 13.564 77.2911 13.564H74.9436V21.7354C74.9436 23.1617 75.0031 23.34 75.1516 24.2314C75.3299 25.1526 75.6271 26.0737 76.2808 26.7869C77.1425 27.6783 78.5391 28.0943 79.8168 27.8863C81.0945 27.6783 82.3128 26.9057 83.0556 25.8954C83.1448 25.7469 83.2339 25.628 83.3231 25.4794V32.8189C83.3231 34.4829 82.7882 35.0474 81.3322 35.0474C79.7871 35.0474 79.1928 33.8291 79.1928 32.0166V29.788H76.3105C75.5379 29.788 74.8842 30.0851 74.9139 31.2143V31.868C74.9139 31.868 74.7653 35.6714 81.0351 35.6714C87.9585 35.6714 87.5722 31.5411 87.5722 27.5Z" fill="#F0F5F8"/>
<path d="M61.0183 61.4829C60.0972 61.364 60.1566 60.5617 60.1566 60.5617V53.8166C60.1566 52.3606 60.0972 52.212 59.9486 51.3206C59.7703 50.3994 59.4732 49.4783 58.8194 48.7652C57.9577 47.844 56.5314 47.4577 55.2537 47.6657C53.976 47.8737 52.728 48.6463 52.0149 49.6566C51.9257 49.8052 51.8366 49.924 51.7474 50.0726V48.0223H49.2812C48.2412 48.0223 47.3794 48.884 47.3794 49.924V59.6703C47.3794 61.9583 48.2412 61.9583 49.3109 61.9583H52.936V61.7503C52.936 61.6314 52.8172 61.5126 52.6389 61.4829C51.6583 61.364 51.7474 60.5617 51.7474 60.5617V53.4897C51.7474 52.8063 51.7772 52.1526 51.8663 51.6474C52.0149 50.9343 52.52 50.0429 53.1737 49.7457C53.7977 49.4189 54.6297 49.4486 55.1349 49.9537C55.3429 50.1617 55.4914 50.4292 55.6103 50.6966C55.848 51.38 55.8777 53.1034 55.8777 53.8166V60.7697C55.8777 61.4234 56.7394 61.9583 57.7794 61.9583H61.3154V61.7503C61.3154 61.6314 61.1966 61.5126 61.0183 61.4829ZM74.4471 64.0977C74.4471 58.4817 67.2265 59.8783 65.2356 60.2052C64.7602 60.2943 64.2848 60.2943 63.8094 60.2646C63.6311 60.2349 63.4825 60.2052 63.3934 60.1754C63.2745 60.116 63.1556 60.0566 63.0665 59.9674C62.8585 59.7297 62.8288 59.3732 62.9774 59.1057C63.0962 58.8383 63.4825 58.5709 63.8094 58.5114C63.9876 58.4817 64.3145 58.452 64.6711 58.5114C65.0574 58.6897 65.5031 58.8383 65.9488 58.9274C66.5728 59.0463 67.2859 59.1057 68.1476 59.1057C68.9796 59.1057 69.7225 59.0463 70.3465 58.9274C72.5751 58.4817 74.1202 56.7286 74.1202 54.7674V51.9149C74.1202 50.1617 72.8722 48.5869 71.0002 47.9629C72.3374 47.4577 72.2482 46.2394 72.2482 46.2394C72.2482 45.2589 71.4756 44.932 70.8516 45.1994C70.2276 45.4669 70.0494 46.3583 70.5545 46.804C70.7922 47.012 70.9111 47.1309 70.7328 47.3092C70.4059 47.636 69.1579 47.6063 68.1774 47.6063C68.1476 47.6063 68.1476 47.6063 68.1476 47.6063C68.1179 47.6063 68.1179 47.6063 68.1179 47.6063C68.0882 47.6063 68.0585 47.6063 68.0585 47.6063C67.2265 47.6063 66.5431 47.6657 65.9488 47.7846C63.6905 48.2006 62.1454 49.9537 62.1454 51.9149V54.7674C62.1454 55.956 62.7099 57.0554 63.6311 57.8577C63.3934 57.8874 63.1556 57.9766 62.8882 58.1549C62.3831 58.452 61.9968 59.1949 61.9671 59.908C61.9374 60.5023 62.1454 61.1857 62.5316 61.572C62.8585 61.8692 63.2448 61.988 63.6608 62.0772C64.0471 62.1366 64.3739 62.1663 64.9979 62.1663C65.5922 62.1663 70.1979 61.572 70.1979 64.7217V67.2772C70.1979 68.9412 68.9796 69.5057 67.9694 69.5057C66.9591 69.5057 66.0676 68.2874 66.0676 66.4749V64.276H63.1854C62.4128 64.276 61.7591 64.5434 61.7888 65.6726V66.3263C61.7888 66.3263 61.6402 70.1297 67.9099 70.1297C74.3876 70.1297 74.4471 67.6932 74.4471 64.0977ZM66.0379 50.1023C66.0379 49.0326 66.9888 48.2006 68.1476 48.2006C69.3065 48.2006 70.2276 49.0326 70.2276 50.1023V56.58C70.2276 57.62 69.3065 58.4817 68.1476 58.4817C66.9888 58.4817 66.0379 57.62 66.0379 56.58V50.1023ZM80.932 61.4829C79.9514 61.364 80.0406 60.5617 80.0406 60.5617V40.1183H77.5743C76.5343 40.1183 75.7023 40.8909 75.7023 41.9309V59.6703C75.7023 61.9583 76.5343 61.9583 77.604 61.9583H81.2291V61.7503C81.2291 61.6314 81.1103 61.5126 80.932 61.4829ZM88.1326 61.4532C87.1817 61.3343 87.2709 60.532 87.2709 60.532V48.0223H84.864C83.824 48.0223 82.992 48.884 82.992 49.924V60.74C82.992 61.3937 83.824 61.9286 84.864 61.9286H88.4297V61.7206C88.4297 61.6017 88.3109 61.4829 88.1326 61.4532ZM85.1314 46.4177C86.32 46.4177 87.3006 45.4372 87.3006 44.2189C87.3006 43.0303 86.32 42.0497 85.1314 42.0497C83.9132 42.0497 82.9623 43.0303 82.9623 44.2189C82.9623 45.4372 83.9132 46.4177 85.1314 46.4177ZM95.43 54.3812H94.8357C94.39 54.3812 92.7557 54.5 92.7557 53.4897V50.2212C92.7557 48.9434 93.5877 48.26 94.806 48.2006C96.0243 48.1412 97.3317 48.5869 97.6883 49.4189C97.8963 49.924 97.7477 50.132 97.302 50.6669C96.4403 51.6772 96.678 53.3114 97.926 53.8166C99.1443 54.3217 100.6 53.7869 100.6 51.8852C100.6 50.0132 99.5009 47.5469 94.9546 47.5469C94.3009 47.5469 91.8049 47.3389 90.0814 49.0326C89.9329 49.2109 89.7843 49.3892 89.6357 49.5972C89.1009 50.34 89.0414 50.756 89.0414 52.3606C89.0414 55.124 93.35 55.124 94.0631 55.124C94.1523 55.0943 94.2117 55.0943 94.3009 55.0943H94.7763C95.1923 55.0943 96.8563 55.0646 96.8563 56.0452V59.8783C96.8563 61.3046 96.2323 61.7206 94.8951 61.7206C93.4689 61.7206 92.7557 60.74 92.7557 59.1652V56.0749H90.3191C89.606 56.0749 89.0117 56.3126 89.0414 57.3229V59.0166C89.0414 59.0166 88.8929 62.3446 94.6277 62.3446C100.957 62.3446 100.571 59.3434 100.571 57.1446C100.571 54.1434 95.43 54.3812 95.43 54.3812ZM115.774 61.4829C114.852 61.364 114.912 60.5617 114.912 60.5617V53.8166C114.912 52.3606 114.852 52.212 114.704 51.3206C114.526 50.3994 114.228 49.4783 113.575 48.7652C112.713 47.844 111.287 47.4577 110.009 47.6657C108.731 47.8737 107.483 48.6463 106.77 49.6566C106.681 49.8052 106.592 49.924 106.503 50.0726V40.1183H104.036C102.996 40.1183 102.135 40.8909 102.135 41.9309V59.6703C102.135 61.9583 102.996 61.9583 104.066 61.9583H107.691V61.7503C107.691 61.6314 107.572 61.5126 107.394 61.4829C106.414 61.364 106.503 60.5617 106.503 60.5617V53.3709C106.503 52.7172 106.532 52.1229 106.622 51.6474C106.77 50.9343 107.275 50.0429 107.929 49.7457C108.553 49.4189 109.385 49.4486 109.89 49.9537C110.098 50.1617 110.247 50.4292 110.366 50.6966C110.603 51.38 110.633 53.1034 110.633 53.8166V60.7697C110.633 61.4234 111.495 61.9583 112.535 61.9583H116.071V61.7503C116.071 61.6314 115.952 61.5126 115.774 61.4829Z" fill="#F0F5F8"/>
</svg>
