<svg width="27" height="27" viewBox="0 0 27 27" fill="none" xmlns="http://www.w3.org/2000/svg">
<path d="M23.5772 21.8719C24.9236 20.252 25.86 18.3317 26.3072 16.2733C26.7544 14.215 26.6993 12.0792 26.1466 10.0467C25.5938 8.01414 24.5596 6.14463 23.1316 4.5963C21.7035 3.04797 19.9235 1.86637 17.9421 1.15146C15.9608 0.436554 13.8364 0.209365 11.7487 0.489115C9.66101 0.768865 7.67139 1.54732 5.94817 2.75864C4.22495 3.96995 2.81883 5.57849 1.84874 7.44817C0.87866 9.31785 0.37316 11.3937 0.375005 13.5C0.375713 16.5621 1.45477 19.5261 3.42282 21.8719L3.40407 21.8879C3.46969 21.9666 3.54469 22.0341 3.61219 22.1119C3.69657 22.2085 3.78751 22.2994 3.87469 22.3932C4.13719 22.6782 4.40719 22.9519 4.69032 23.2088C4.77657 23.2875 4.86563 23.3607 4.95282 23.4357C5.25282 23.6944 5.56126 23.94 5.88094 24.1688C5.92219 24.1969 5.95969 24.2335 6.00094 24.2625V24.2513C8.19667 25.7964 10.816 26.6257 13.5009 26.6257C16.1858 26.6257 18.8052 25.7964 21.0009 24.2513V24.2625C21.0422 24.2335 21.0788 24.1969 21.1209 24.1688C21.4397 23.9391 21.7491 23.6944 22.0491 23.4357C22.1363 23.3607 22.2253 23.2866 22.3116 23.2088C22.5947 22.951 22.8647 22.6782 23.1272 22.3932C23.2144 22.2994 23.3044 22.2085 23.3897 22.1119C23.4563 22.0341 23.5322 21.9666 23.5978 21.8869L23.5772 21.8719ZM13.5 6.00004C14.3344 6.00004 15.15 6.24747 15.8438 6.71103C16.5376 7.17459 17.0783 7.83347 17.3976 8.60434C17.7169 9.37522 17.8005 10.2235 17.6377 11.0418C17.4749 11.8602 17.0731 12.6119 16.4831 13.2019C15.8931 13.7919 15.1414 14.1937 14.323 14.3565C13.5047 14.5193 12.6564 14.4357 11.8856 14.1164C11.1147 13.7971 10.4558 13.2564 9.99224 12.5626C9.52868 11.8688 9.28126 11.0532 9.28126 10.2188C9.28126 9.09991 9.72573 8.02685 10.5169 7.23568C11.3081 6.44451 12.3811 6.00004 13.5 6.00004ZM6.00657 21.8719C6.02283 20.6409 6.52308 19.4659 7.39909 18.6009C8.2751 17.736 9.45643 17.2507 10.6875 17.25H16.3125C17.5436 17.2507 18.7249 17.736 19.6009 18.6009C20.4769 19.4659 20.9772 20.6409 20.9934 21.8719C18.9374 23.7247 16.2677 24.7501 13.5 24.7501C10.7323 24.7501 8.06265 23.7247 6.00657 21.8719Z" fill="#4FA3A5"/>
</svg>
