<svg width="93" height="92" viewBox="0 0 93 92" fill="none" xmlns="http://www.w3.org/2000/svg">
<path d="M58.996 32.1325C59.5555 31.2596 59.8417 30.3209 59.8417 29.325C59.8417 27.7357 59.3176 26.426 58.2389 25.4538L58.2384 25.4533C57.1714 24.4944 55.7986 24.0334 54.1667 24.0334C53.1981 24.0334 52.2906 24.2416 51.4514 24.6611C50.6075 25.0831 49.8785 25.712 49.2625 26.5334L49.2625 26.5333L49.2581 26.5393C48.7959 27.1749 48.2655 27.5847 47.6708 27.801C47.0739 28.018 46.5316 28.0124 46.0181 27.8079C45.3636 27.5343 44.9435 27.115 44.7129 26.5489L44.7123 26.5475C44.4822 25.9874 44.5202 25.4826 44.8204 24.9823L44.8218 24.9799C45.8017 23.3264 47.0995 22.0296 48.7189 21.0818C50.3283 20.141 52.1401 19.6667 54.1667 19.6667C57.3272 19.6667 59.8338 20.5477 61.7353 22.2704L61.7358 22.2708C63.6378 23.9894 64.5917 26.1986 64.5917 28.9417C64.5917 30.4716 64.2861 31.7757 63.6936 32.8706L63.6934 32.871C63.0906 33.9873 61.8562 35.495 59.9465 37.4048C58.9814 38.3699 58.2443 39.1876 57.7457 39.8542C57.2134 40.5623 56.8788 41.3748 56.7392 42.2823C56.6285 43.002 56.3153 43.5816 55.7968 44.0435L55.7951 44.045C55.2657 44.5208 54.7267 44.7334 54.1667 44.7334C53.466 44.7334 52.9141 44.4971 52.4721 44.028L52.4713 44.0271C52.0215 43.552 51.8341 43.0201 51.8858 42.3999L51.8862 42.3953C52.0112 40.707 52.3522 39.4931 52.8623 38.6996C53.3948 37.8712 54.4959 36.7291 56.2159 35.264L56.2262 35.2552L56.2361 35.2459C57.5224 34.0238 58.4518 32.984 58.996 32.1325ZM58.996 32.1325L58.575 31.8627M58.996 32.1325C58.9961 32.1323 58.9962 32.1321 58.9963 32.1319L58.575 31.8627M58.575 31.8627C58.0639 32.6626 57.1695 33.6695 55.8917 34.8834L49.6625 26.8334C50.2375 26.0667 50.9084 25.4917 51.675 25.1084C52.4417 24.725 53.2722 24.5334 54.1667 24.5334C55.7 24.5334 56.9459 24.964 57.9042 25.8252C58.8625 26.689 59.3417 27.8556 59.3417 29.325C59.3417 30.2195 59.0861 31.0654 58.575 31.8627ZM30.6667 61.3334V61.8334H31.1667H77.1667H77.6667V61.3334V15.3334V14.8334H77.1667H31.1667H30.6667V15.3334V61.3334ZM15.3334 76.6667V77.1667H15.8334H65.6667C66.6266 77.1667 67.4069 77.4864 68.0418 78.1236L68.0431 78.1248C68.6803 78.7598 69 79.5401 69 80.5C69 81.4599 68.6803 82.2402 68.0431 82.8752L68.0419 82.8764C67.4069 83.5136 66.6266 83.8334 65.6667 83.8334H15.8334C13.8586 83.8334 12.1812 83.1366 10.7742 81.7296C9.3645 80.3199 8.66669 78.6412 8.66669 76.6667V26.8334C8.66669 25.8734 8.98646 25.0915 9.62424 24.4537C10.2591 23.8189 11.0396 23.5 12 23.5C12.9602 23.5 13.7421 23.8187 14.3797 24.4538C15.0147 25.0913 15.3334 25.8732 15.3334 26.8334V76.6667ZM56.6421 55.9505C55.9319 56.6581 55.1144 57 54.1667 57C53.2187 57 52.4026 56.658 51.6951 55.9505C50.9846 55.24 50.6417 54.4225 50.6417 53.475C50.6417 52.5275 50.9846 51.71 51.6951 50.9996C52.4026 50.292 53.2187 49.95 54.1667 49.95C55.1144 49.95 55.9319 50.2919 56.6421 50.9996C57.3498 51.7098 57.6917 52.5273 57.6917 53.475C57.6917 54.4228 57.3498 55.2403 56.6421 55.9505ZM31.1667 68.5C29.1919 68.5 27.5146 67.8033 26.1076 66.3963C24.6978 64.9866 24 63.3079 24 61.3334V15.3334C24 13.3588 24.6978 11.6801 26.1076 10.2704C27.5146 8.86341 29.1919 8.16669 31.1667 8.16669H77.1667C79.1412 8.16669 80.8198 8.86321 82.2293 10.2701C83.6366 11.6798 84.3334 13.3585 84.3334 15.3334V61.3334C84.3334 63.308 83.6367 64.9867 82.2296 66.3963C80.82 67.8034 79.1414 68.5 77.1667 68.5H31.1667Z" fill="#4FA3A5" stroke="#F0F5F8"/>
</svg>
