<svg width="22" height="22" viewBox="0 0 22 22" fill="none" xmlns="http://www.w3.org/2000/svg">
<path d="M14.2004 16.9908C12.7935 17.8818 11.1574 18.3599 9.4801 18.3602C4.58393 18.3602 0.6 14.3763 0.6 9.48011C0.6 4.58393 4.58393 0.6 9.48012 0.6C14.3763 0.6 18.3602 4.58393 18.3602 9.48009C18.3598 11.1578 17.8814 12.7943 16.9899 14.2015C16.6977 14.6628 16.725 15.2803 17.1196 15.6749L20.7211 19.2764C21.0725 19.6278 21.0725 20.1977 20.7211 20.5492L20.548 20.7222C20.1966 21.0737 19.6267 21.0737 19.2753 20.7222L15.6737 17.1206C15.2792 16.7261 14.6618 16.6987 14.2004 16.9908ZM16.3152 9.48011C16.3152 5.71049 13.2497 2.64503 9.48012 2.64503C5.71049 2.64503 2.64503 5.71049 2.64503 9.48011C2.64503 13.2497 5.71049 16.3152 9.48012 16.3152C13.2497 16.3152 16.3152 13.2497 16.3152 9.48011Z" fill="#4FA3A5" fill-opacity="0.8" stroke="#F0F5F8" stroke-width="0.2"/>
</svg>
