<svg width="64" height="65" viewBox="0 0 64 65" fill="none" xmlns="http://www.w3.org/2000/svg">
<path d="M63.048 13.2237C60.8213 14.2104 58.4293 14.8771 55.9147 15.1784C58.5093 13.6258 60.4505 11.1823 61.376 8.30373C58.9382 9.7517 56.2702 10.7709 53.488 11.3171C51.617 9.31937 49.1388 7.99526 46.4382 7.55032C43.7376 7.10538 40.9656 7.5645 38.5526 8.8564C36.1397 10.1483 34.2207 12.2007 33.0937 14.6949C31.9667 17.1892 31.6948 19.9857 32.32 22.6504C27.3805 22.4024 22.5483 21.1185 18.1371 18.8821C13.7259 16.6458 9.83423 13.5068 6.71466 9.66906C5.64799 11.5091 5.03466 13.6424 5.03466 15.9144C5.03347 17.9597 5.53714 19.9737 6.501 21.7777C7.46486 23.5817 8.85909 25.1198 10.56 26.2557C8.58739 26.193 6.65832 25.6599 4.93332 24.7011V24.8611C4.93313 27.7297 5.92541 30.5101 7.74181 32.7304C9.55821 34.9507 12.0868 36.4742 14.8987 37.0424C13.0687 37.5376 11.1502 37.6106 9.28799 37.2557C10.0813 39.724 11.6266 41.8825 13.7076 43.4289C15.7886 44.9753 18.3011 45.8322 20.8933 45.8797C16.4929 49.3342 11.0584 51.208 5.46399 51.1997C4.47301 51.2 3.48286 51.1421 2.49866 51.0264C8.17726 54.6775 14.7876 56.6152 21.5387 56.6077C44.392 56.6077 56.8853 37.6797 56.8853 21.2637C56.8853 20.7304 56.872 20.1917 56.848 19.6584C59.2781 17.901 61.3758 15.7248 63.0427 13.2317L63.048 13.2237V13.2237Z" fill="#F0F5F8"/>
</svg>
