<svg width="64" height="65" viewBox="0 0 64 65" fill="none" xmlns="http://www.w3.org/2000/svg">
<path d="M53.76 18.2983C46.08 6.45835 30.4 2.93835 18.24 10.2983C6.40003 17.6583 2.56003 33.6583 10.24 45.4983L10.88 46.4584L8.32003 56.0584L17.92 53.4984L18.88 54.1383C23.04 56.3783 27.52 57.6584 32 57.6584C36.8 57.6584 41.6 56.3783 45.76 53.8183C57.6 46.1383 61.12 30.4583 53.76 18.2983V18.2983ZM47.04 42.9383C45.76 44.8583 44.16 46.1384 41.92 46.4584C40.64 46.4584 39.04 47.0983 32.64 44.5383C27.2 41.9783 22.72 37.8184 19.52 33.0184C17.6 30.7784 16.64 27.8984 16.32 25.0184C16.32 22.4584 17.28 20.2184 18.88 18.6184C19.52 17.9784 20.16 17.6583 20.8 17.6583H22.4C23.04 17.6583 23.68 17.6584 24 18.9384C24.64 20.5384 26.24 24.3783 26.24 24.6983C26.56 25.0183 26.56 25.6584 26.24 25.9784C26.56 26.6184 26.24 27.2584 25.92 27.5784C25.6 27.8984 25.28 28.5383 24.96 28.8583C24.32 29.1783 24 29.8183 24.32 30.4583C25.6 32.3784 27.2 34.2983 28.8 35.8983C30.72 37.4983 32.64 38.7783 34.88 39.7383C35.52 40.0583 36.16 40.0584 36.48 39.4184C36.8 38.7784 38.4 37.1783 39.04 36.5383C39.68 35.8983 40 35.8984 40.64 36.2184L45.76 38.7784C46.4 39.0984 47.04 39.4183 47.36 39.7383C47.68 40.6983 47.68 41.9783 47.04 42.9383V42.9383Z" fill="#F0F5F8"/>
</svg>
