<svg width="93" height="92" viewBox="0 0 93 92" fill="none" xmlns="http://www.w3.org/2000/svg">
<path d="M60.875 47.4609V78.3438C60.875 82.7102 57.452 86.25 53.1574 86.25H19.7266C15.423 86.25 12 82.7102 12 78.3438V30.9062C12.0123 28.8132 12.8492 26.8093 14.3292 25.3292C15.8093 23.8492 17.8132 23.0123 19.9062 23H36.8184C37.4038 23.0009 37.9832 23.1183 38.5227 23.3453C39.0623 23.5724 39.5513 23.9046 39.9612 24.3225L59.5741 44.2678C60.4085 45.1211 60.8755 46.2674 60.875 47.4609V47.4609Z" stroke="#4FA3A5" stroke-width="5" stroke-linejoin="round"/>
<path d="M36.4375 23V42.4062C36.4534 43.7357 36.9885 45.0062 37.9287 45.9463C38.8688 46.8865 40.1393 47.4216 41.4688 47.4375H60.875" stroke="#4FA3A5" stroke-width="5" stroke-linecap="round" stroke-linejoin="round"/>
<path d="M32.125 23V13.6562C32.1373 11.5632 32.9742 9.55929 34.4542 8.07923C35.9343 6.59917 37.9382 5.76226 40.0312 5.75H56.9219C57.5105 5.75082 58.0931 5.86809 58.6362 6.09507C59.1792 6.32204 59.672 6.65423 60.0862 7.0725L79.6991 27.0178C80.5329 27.862 81.0004 29.0009 81 30.1875V61.0938C81 65.4602 77.577 69 73.2824 69H62.3125" stroke="#4FA3A5" stroke-width="5" stroke-linejoin="round"/>
<path d="M56.5625 5.75V25.1562C56.5784 26.4857 57.1135 27.7562 58.0537 28.6963C58.9938 29.6365 60.2643 30.1716 61.5938 30.1875H81" stroke="#4FA3A5" stroke-width="5" stroke-linecap="round" stroke-linejoin="round"/>
</svg>
